<?xml version="1.0" encoding="UTF-8" ?>
<!DOCTYPE svg PUBLIC "-//W3C//DTD SVG 1.1//EN" "http://www.w3.org/Graphics/SVG/1.1/DTD/svg11.dtd">
<svg width="128pt" height="128pt" viewBox="0 0 128 128" version="1.1" xmlns="http://www.w3.org/2000/svg">
<g id="#e47739ff">
<path fill="#e47739" opacity="1.00" d=" M 0.00 0.00 L 128.00 0.00 L 128.00 128.00 L 0.00 128.00 L 0.00 0.00 M 44.32 26.49 C 41.80 26.89 40.49 29.57 40.71 31.93 C 40.75 53.64 40.64 75.36 40.78 97.07 C 40.62 99.84 43.26 101.98 45.92 101.72 C 57.62 101.79 69.31 101.69 81.01 101.77 C 82.86 101.69 85.04 101.90 86.43 100.41 C 87.98 99.07 87.82 96.86 87.88 95.01 C 87.84 74.35 87.84 53.69 87.88 33.03 C 87.82 31.18 87.99 28.97 86.43 27.64 C 84.75 25.92 82.14 26.41 79.98 26.29 C 68.10 26.49 56.19 26.04 44.32 26.49 M 96.74 51.23 C 100.30 54.89 102.91 59.72 102.70 64.95 C 102.79 69.91 100.33 74.46 97.00 77.99 C 97.96 79.74 98.93 81.48 99.91 83.23 C 105.92 78.05 109.49 70.02 108.44 62.05 C 107.85 55.71 104.28 50.06 99.54 45.95 C 98.60 47.71 97.67 49.47 96.74 51.23 M 19.54 64.05 C 19.13 71.62 22.85 78.93 28.60 83.72 C 29.53 81.97 30.46 80.21 31.38 78.45 C 27.64 74.65 25.03 69.52 25.44 64.08 C 25.52 59.33 27.98 55.09 31.11 51.67 C 30.15 49.93 29.18 48.19 28.20 46.46 C 23.17 50.91 19.67 57.24 19.54 64.05 M 28.65 66.02 C 28.80 69.47 31.00 72.27 33.29 74.66 C 34.23 72.93 35.14 71.18 36.03 69.42 C 34.14 66.61 34.25 63.28 35.99 60.44 C 35.08 58.76 34.16 57.08 33.23 55.41 C 30.25 58.07 28.13 61.91 28.65 66.02 M 92.06 60.25 C 93.94 63.00 94.00 66.39 92.11 69.15 C 93.01 70.85 93.92 72.54 94.85 74.22 C 98.41 71.35 100.38 66.57 99.22 62.06 C 98.70 59.23 96.69 57.08 94.83 55.04 C 93.89 56.77 92.97 58.50 92.06 60.25 Z" />
<path fill="#e47739" opacity="1.00" d=" M 53.80 53.61 C 55.49 53.61 57.18 53.61 58.87 53.61 C 63.01 59.22 67.14 64.83 71.30 70.42 C 71.32 64.81 71.30 59.21 71.32 53.60 C 72.38 53.60 74.51 53.61 75.57 53.61 C 75.59 61.13 75.58 68.64 75.58 76.16 C 73.46 75.92 70.62 76.90 69.41 74.55 C 65.61 69.48 61.88 64.36 58.07 59.29 C 58.06 64.90 58.07 70.51 58.06 76.11 C 56.64 76.11 55.22 76.11 53.80 76.11 C 53.79 68.61 53.79 61.11 53.80 53.61 Z" />
</g>
<g id="#ffffffff">
<path fill="#ffffff" opacity="1.00" d=" M 44.32 26.49 C 56.19 26.04 68.10 26.49 79.98 26.29 C 82.14 26.41 84.75 25.92 86.43 27.64 C 87.99 28.97 87.82 31.18 87.88 33.03 C 87.84 53.69 87.84 74.35 87.88 95.01 C 87.82 96.86 87.98 99.07 86.43 100.41 C 85.04 101.90 82.86 101.69 81.01 101.77 C 69.31 101.69 57.62 101.79 45.92 101.72 C 43.26 101.98 40.62 99.84 40.78 97.07 C 40.64 75.36 40.75 53.64 40.71 31.93 C 40.49 29.57 41.80 26.89 44.32 26.49 M 53.80 53.61 C 53.79 61.11 53.79 68.61 53.80 76.11 C 55.22 76.11 56.64 76.11 58.06 76.11 C 58.07 70.51 58.06 64.90 58.07 59.29 C 61.88 64.36 65.61 69.48 69.41 74.55 C 70.62 76.90 73.46 75.92 75.58 76.16 C 75.58 68.64 75.59 61.13 75.57 53.61 C 74.51 53.61 72.38 53.60 71.32 53.60 C 71.30 59.21 71.32 64.81 71.30 70.42 C 67.14 64.83 63.01 59.22 58.87 53.61 C 57.18 53.61 55.49 53.61 53.80 53.61 Z" />
<path fill="#ffffff" opacity="1.00" d=" M 96.74 51.23 C 97.67 49.47 98.60 47.71 99.54 45.95 C 104.28 50.06 107.85 55.71 108.44 62.05 C 109.49 70.02 105.92 78.05 99.91 83.23 C 98.93 81.48 97.96 79.74 97.00 77.99 C 100.33 74.46 102.79 69.91 102.70 64.95 C 102.91 59.72 100.30 54.89 96.74 51.23 Z" />
<path fill="#ffffff" opacity="1.00" d=" M 19.54 64.05 C 19.67 57.24 23.17 50.91 28.20 46.46 C 29.18 48.19 30.15 49.93 31.11 51.67 C 27.98 55.09 25.52 59.33 25.44 64.08 C 25.03 69.52 27.64 74.65 31.38 78.45 C 30.46 80.21 29.53 81.97 28.60 83.72 C 22.85 78.93 19.13 71.62 19.54 64.05 Z" />
<path fill="#ffffff" opacity="1.00" d=" M 28.65 66.02 C 28.13 61.91 30.25 58.07 33.23 55.41 C 34.16 57.08 35.08 58.76 35.99 60.44 C 34.25 63.28 34.14 66.61 36.03 69.42 C 35.14 71.18 34.23 72.93 33.29 74.66 C 31.00 72.27 28.80 69.47 28.65 66.02 Z" />
<path fill="#ffffff" opacity="1.00" d=" M 92.06 60.25 C 92.97 58.50 93.89 56.77 94.83 55.04 C 96.69 57.08 98.70 59.23 99.22 62.06 C 100.38 66.57 98.41 71.35 94.85 74.22 C 93.92 72.54 93.01 70.85 92.11 69.15 C 94.00 66.39 93.94 63.00 92.06 60.25 Z" />
</g>
</svg>
